<?xml version="1.0" encoding="UTF-8"?>
<svg width="700pt" height="700pt" version="1.1" viewBox="0 0 700 700" xmlns="http://www.w3.org/2000/svg"
  xmlns:xlink="http://www.w3.org/1999/xlink">
  <defs>
    <symbol id="u" overflow="visible">
      <path
        d="m7.6406-0.45312c-0.39844 0.19922-0.80859 0.35156-1.2344 0.45312-0.42969 0.10156-0.87109 0.15625-1.3281 0.15625-1.3867 0-2.4844-0.38281-3.2969-1.1562-0.8125-0.76953-1.2188-1.8203-1.2188-3.1562 0-1.3203 0.40625-2.3672 1.2188-3.1406 0.8125-0.78125 1.9102-1.1719 3.2969-1.1719 0.45703 0 0.89844 0.054688 1.3281 0.15625 0.42578 0.10547 0.83594 0.26172 1.2344 0.46875v1.7188c-0.39844-0.26953-0.78906-0.46875-1.1719-0.59375-0.38672-0.125-0.79297-0.1875-1.2188-0.1875-0.77344 0-1.375 0.24609-1.8125 0.73438-0.4375 0.49219-0.65625 1.1641-0.65625 2.0156 0 0.86719 0.21875 1.543 0.65625 2.0312 0.4375 0.49219 1.0391 0.73438 1.8125 0.73438 0.42578 0 0.83203-0.0625 1.2188-0.1875 0.38281-0.125 0.77344-0.32031 1.1719-0.59375z" />
    </symbol>
    <symbol id="c" overflow="visible">
      <path
        d="m5.5938-4.5469c-0.17969-0.070313-0.35547-0.12891-0.53125-0.17188-0.16797-0.039062-0.33984-0.0625-0.51562-0.0625-0.51172 0-0.90625 0.16797-1.1875 0.5-0.27344 0.32422-0.40625 0.79297-0.40625 1.4062v2.875h-2v-6.2344h2v1.0156c0.25781-0.40625 0.55078-0.70312 0.875-0.89062 0.33203-0.1875 0.73438-0.28125 1.2031-0.28125 0.0625 0 0.12891 0.007813 0.20312 0.015625 0.082031 0 0.20312 0.011719 0.35938 0.03125z" />
    </symbol>
    <symbol id="b" overflow="visible">
      <path
        d="m7.1875-3.1406v0.57812h-4.6719c0.050781 0.46875 0.22266 0.82422 0.51562 1.0625 0.28906 0.23047 0.69531 0.34375 1.2188 0.34375 0.41406 0 0.84375-0.0625 1.2812-0.1875s0.89062-0.31641 1.3594-0.57812v1.5469c-0.46875 0.17969-0.94531 0.30859-1.4219 0.39062-0.46875 0.09375-0.9375 0.14062-1.4062 0.14062-1.1367 0-2.0156-0.28516-2.6406-0.85938-0.625-0.57031-0.9375-1.375-0.9375-2.4062 0-1.0195 0.30469-1.8203 0.92188-2.4062 0.61328-0.58203 1.4609-0.875 2.5469-0.875 0.97656 0 1.7578 0.29688 2.3438 0.89062 0.59375 0.59375 0.89062 1.3828 0.89062 2.3594zm-2.0469-0.65625c0-0.375-0.11719-0.67578-0.34375-0.90625-0.21875-0.23828-0.50781-0.35938-0.85938-0.35938-0.38672 0-0.69922 0.10938-0.9375 0.32812-0.24219 0.21875-0.39062 0.53125-0.45312 0.9375z" />
    </symbol>
    <symbol id="f" overflow="visible">
      <path
        d="m3.75-2.8125c-0.41797 0-0.73047 0.074219-0.9375 0.21875-0.21094 0.13672-0.3125 0.34375-0.3125 0.625 0 0.25 0.082031 0.44922 0.25 0.59375 0.16406 0.14844 0.39844 0.21875 0.70312 0.21875 0.375 0 0.69141-0.13281 0.95312-0.40625 0.25781-0.26953 0.39062-0.60938 0.39062-1.0156v-0.23438zm3.0469-0.75v3.5625h-2v-0.92188c-0.27344 0.375-0.57422 0.65234-0.90625 0.82812-0.33594 0.16406-0.74219 0.25-1.2188 0.25-0.64844 0-1.1719-0.1875-1.5781-0.5625s-0.60938-0.86328-0.60938-1.4688c0-0.72656 0.25-1.2656 0.75-1.6094 0.50781-0.34375 1.3008-0.51562 2.375-0.51562h1.1875v-0.15625c0-0.3125-0.125-0.53906-0.375-0.6875-0.25-0.14453-0.64062-0.21875-1.1719-0.21875-0.42969 0-0.82422 0.042969-1.1875 0.125-0.36719 0.085938-0.71094 0.21484-1.0312 0.39062v-1.5312c0.42578-0.10156 0.85156-0.17969 1.2812-0.23438 0.4375-0.050781 0.86719-0.078125 1.2969-0.078125 1.125 0 1.9375 0.22656 2.4375 0.67188 0.5 0.4375 0.75 1.1562 0.75 2.1562z" />
    </symbol>
    <symbol id="a" overflow="visible">
      <path
        d="m3.1406-8.0156v1.7812h2.0469v1.4219h-2.0469v2.6406c0 0.29297 0.054687 0.49219 0.17188 0.59375 0.11328 0.10547 0.34375 0.15625 0.6875 0.15625h1.0156v1.4219h-1.7031c-0.79297 0-1.3555-0.16016-1.6875-0.48438-0.32422-0.33203-0.48438-0.89453-0.48438-1.6875v-2.6406h-0.98438v-1.4219h0.98438v-1.7812z" />
    </symbol>
    <symbol id="l" overflow="visible">
      <path
        d="m5.2031-5.3281v-3.3438h2v8.6719h-2v-0.90625c-0.27344 0.375-0.57422 0.64844-0.90625 0.8125-0.33594 0.16406-0.71875 0.25-1.1562 0.25-0.76172 0-1.3906-0.30078-1.8906-0.90625-0.49219-0.61328-0.73438-1.3984-0.73438-2.3594 0-0.96875 0.24219-1.7539 0.73438-2.3594 0.5-0.61328 1.1289-0.92188 1.8906-0.92188 0.4375 0 0.82031 0.089844 1.1562 0.26562 0.33203 0.16797 0.63281 0.43359 0.90625 0.79688zm-1.3125 4.0469c0.42578 0 0.75-0.15625 0.96875-0.46875 0.22656-0.3125 0.34375-0.76562 0.34375-1.3594s-0.11719-1.0469-0.34375-1.3594c-0.21875-0.3125-0.54297-0.46875-0.96875-0.46875-0.42969 0-0.75781 0.15625-0.98438 0.46875-0.21875 0.3125-0.32812 0.76562-0.32812 1.3594s0.10938 1.0469 0.32812 1.3594c0.22656 0.3125 0.55469 0.46875 0.98438 0.46875z" />
    </symbol>
    <symbol id="k" overflow="visible">
      <path
        d="m4.2812-1.2812c0.42578 0 0.75-0.15625 0.96875-0.46875 0.22656-0.3125 0.34375-0.76562 0.34375-1.3594s-0.11719-1.0469-0.34375-1.3594c-0.21875-0.3125-0.54297-0.46875-0.96875-0.46875-0.42969 0-0.75781 0.15625-0.98438 0.46875-0.23047 0.3125-0.34375 0.76562-0.34375 1.3594 0 0.58594 0.11328 1.0391 0.34375 1.3594 0.22656 0.3125 0.55469 0.46875 0.98438 0.46875zm-1.3281-4.0469c0.26953-0.36328 0.57031-0.62891 0.90625-0.79688 0.33203-0.17578 0.71875-0.26562 1.1562-0.26562 0.76953 0 1.3984 0.30859 1.8906 0.92188 0.5 0.60547 0.75 1.3906 0.75 2.3594 0 0.96094-0.25 1.7461-0.75 2.3594-0.49219 0.60547-1.1211 0.90625-1.8906 0.90625-0.4375 0-0.82422-0.085938-1.1562-0.25-0.33594-0.17578-0.63672-0.44531-0.90625-0.8125v0.90625h-2v-8.6719h2z" />
    </symbol>
    <symbol id="e" overflow="visible">
      <path
        d="m0.14062-6.2344h2l1.6719 4.2344 1.4219-4.2344h2l-2.625 6.8281c-0.27344 0.6875-0.58594 1.1719-0.9375 1.4531-0.34375 0.28125-0.80469 0.42188-1.375 0.42188h-1.1562v-1.3125h0.625c0.33203 0 0.57812-0.058594 0.73438-0.17188 0.15625-0.10547 0.27344-0.29688 0.35938-0.57812l0.0625-0.17188z" />
    </symbol>
    <symbol id="j" overflow="visible">
      <path
        d="m0.34375-8.3125h2.0469l1.4375 6.0469 1.4219-6.0469h2.0781l1.4219 6.0469 1.4375-6.0469h2.0312l-1.9531 8.3125h-2.4688l-1.5156-6.3281-1.4844 6.3281h-2.4844z" />
    </symbol>
    <symbol id="i" overflow="visible">
      <path
        d="m7.2344-3.7969v3.7969h-2.0156v-2.8906c0-0.55078-0.011719-0.92578-0.03125-1.125-0.023438-0.20703-0.0625-0.35938-0.125-0.45312-0.074219-0.13281-0.17969-0.23828-0.3125-0.3125-0.13672-0.070312-0.29297-0.10938-0.46875-0.10938-0.40625 0-0.73047 0.16406-0.96875 0.48438-0.24219 0.32422-0.35938 0.77344-0.35938 1.3438v3.0625h-2v-8.6719h2v3.3438c0.30078-0.36328 0.61719-0.62891 0.95312-0.79688 0.34375-0.17578 0.71875-0.26562 1.125-0.26562 0.71875 0 1.2656 0.22656 1.6406 0.67188 0.375 0.4375 0.5625 1.0781 0.5625 1.9219z" />
    </symbol>
    <symbol id="h" overflow="visible">
      <path
        d="m0.89062-2.4219v-3.8125h2v0.625 1.2656 1.0312c0 0.5 0.007813 0.85938 0.03125 1.0781 0.03125 0.21875 0.078125 0.38281 0.14062 0.48438 0.082031 0.125 0.1875 0.22656 0.3125 0.29688 0.13281 0.074219 0.28516 0.10938 0.45312 0.10938 0.41406 0 0.74219-0.16016 0.98438-0.48438 0.23828-0.32031 0.35938-0.76562 0.35938-1.3281v-3.0781h1.9844v6.2344h-1.9844v-0.90625c-0.30469 0.36719-0.625 0.63672-0.96875 0.8125-0.33594 0.16406-0.69922 0.25-1.0938 0.25-0.73047 0-1.2812-0.21875-1.6562-0.65625s-0.5625-1.0781-0.5625-1.9219z" />
    </symbol>
    <symbol id="g" overflow="visible">
      <path
        d="m7.2344-3.7969v3.7969h-2.0156v-2.9062c0-0.53906-0.011719-0.91016-0.03125-1.1094-0.023438-0.20703-0.0625-0.35938-0.125-0.45312-0.074219-0.13281-0.17969-0.23828-0.3125-0.3125-0.13672-0.070312-0.29297-0.10938-0.46875-0.10938-0.40625 0-0.73047 0.16406-0.96875 0.48438-0.24219 0.32422-0.35938 0.77344-0.35938 1.3438v3.0625h-2v-6.2344h2v0.90625c0.30078-0.36328 0.61719-0.62891 0.95312-0.79688 0.34375-0.17578 0.71875-0.26562 1.125-0.26562 0.71875 0 1.2656 0.22656 1.6406 0.67188 0.375 0.4375 0.5625 1.0781 0.5625 1.9219z" />
    </symbol>
    <symbol id="t" overflow="visible">
      <path d="m0.95312-6.2344h2v6.2344h-2zm0-2.4375h2v1.625h-2z" />
    </symbol>
    <symbol id="s" overflow="visible">
      <path d="m0.95312-8.6719h2v8.6719h-2z" />
    </symbol>
    <symbol id="r" overflow="visible">
      <path
        d="m5.0625-8.6719v1.3125h-1.1094c-0.28125 0-0.48047 0.054687-0.59375 0.15625-0.10547 0.10547-0.15625 0.28125-0.15625 0.53125v0.4375h1.7031v1.4219h-1.7031v4.8125h-2v-4.8125h-0.98438v-1.4219h0.98438v-0.4375c0-0.67578 0.1875-1.1758 0.5625-1.5 0.38281-0.33203 0.97266-0.5 1.7656-0.5z" />
    </symbol>
    <symbol id="d" overflow="visible">
      <path
        d="m3.9219-4.9688c-0.4375 0-0.77734 0.16406-1.0156 0.48438-0.23047 0.3125-0.34375 0.77344-0.34375 1.375 0 0.59375 0.11328 1.0547 0.34375 1.375 0.23828 0.3125 0.57812 0.46875 1.0156 0.46875s0.76953-0.15625 1-0.46875c0.22656-0.32031 0.34375-0.78125 0.34375-1.375 0-0.60156-0.11719-1.0625-0.34375-1.375-0.23047-0.32031-0.5625-0.48438-1-0.48438zm0-1.4219c1.0703 0 1.9102 0.29297 2.5156 0.875 0.60156 0.57422 0.90625 1.375 0.90625 2.4062 0 1.0234-0.30469 1.8242-0.90625 2.4062-0.60547 0.57422-1.4453 0.85938-2.5156 0.85938-1.0742 0-1.918-0.28516-2.5312-0.85938-0.60547-0.58203-0.90625-1.3828-0.90625-2.4062 0-1.0312 0.30078-1.832 0.90625-2.4062 0.61328-0.58203 1.457-0.875 2.5312-0.875z" />
    </symbol>
    <symbol id="q" overflow="visible">
      <path
        d="m6.7344-5.2031c0.25781-0.38281 0.5625-0.67578 0.90625-0.875 0.34375-0.20703 0.72266-0.3125 1.1406-0.3125 0.71875 0 1.2656 0.22656 1.6406 0.67188 0.375 0.4375 0.5625 1.0781 0.5625 1.9219v3.7969h-2v-3.25-0.15625-0.21875c0-0.4375-0.070313-0.75391-0.20312-0.95312-0.125-0.20703-0.32812-0.3125-0.60938-0.3125-0.38672 0-0.68359 0.15625-0.89062 0.46875-0.19922 0.3125-0.30469 0.76562-0.3125 1.3594v3.0625h-2v-3.25c0-0.6875-0.0625-1.1289-0.1875-1.3281-0.11719-0.20703-0.32422-0.3125-0.625-0.3125-0.38672 0-0.68359 0.16406-0.89062 0.48438-0.21094 0.3125-0.3125 0.76172-0.3125 1.3438v3.0625h-2v-6.2344h2v0.90625c0.23828-0.35156 0.51562-0.61719 0.82812-0.79688 0.32031-0.17578 0.67578-0.26562 1.0625-0.26562 0.42578 0 0.80469 0.10547 1.1406 0.3125 0.33203 0.21094 0.58203 0.5 0.75 0.875z" />
    </symbol>
    <symbol id="p" overflow="visible">
      <path d="m1.0469-8.3125h2.3906l3.0312 5.7031v-5.7031h2.0312v8.3125h-2.3906l-3.0312-5.7031v5.7031h-2.0312z" />
    </symbol>
    <symbol id="o" overflow="visible">
      <path
        d="m1.0469-8.3125h3.5625c1.0508 0 1.8594 0.23438 2.4219 0.70312 0.57031 0.46875 0.85938 1.1367 0.85938 2 0 0.875-0.28906 1.5469-0.85938 2.0156-0.5625 0.46875-1.3711 0.70312-2.4219 0.70312h-1.4219v2.8906h-2.1406zm2.1406 1.5469v2.3281h1.1875c0.41406 0 0.73828-0.097656 0.96875-0.29688 0.22656-0.20703 0.34375-0.5 0.34375-0.875 0-0.36328-0.11719-0.64453-0.34375-0.84375-0.23047-0.20703-0.55469-0.3125-0.96875-0.3125z" />
    </symbol>
    <symbol id="n" overflow="visible">
      <path
        d="m0.95312-6.2344h2v6.125c0 0.83203-0.20312 1.4688-0.60938 1.9062-0.39844 0.44531-0.97656 0.67188-1.7344 0.67188h-0.98438v-1.3125h0.34375c0.375 0 0.62891-0.089844 0.76562-0.26562 0.14453-0.16797 0.21875-0.5 0.21875-1zm0-2.4375h2v1.625h-2z" />
    </symbol>
    <symbol id="m" overflow="visible">
      <path
        d="m6-6.0469v1.625c-0.27344-0.17578-0.54688-0.3125-0.82812-0.40625-0.27344-0.09375-0.55469-0.14062-0.84375-0.14062-0.55469 0-0.98438 0.16797-1.2969 0.5-0.3125 0.32422-0.46875 0.77734-0.46875 1.3594 0 0.58594 0.15625 1.0391 0.46875 1.3594 0.3125 0.32422 0.74219 0.48438 1.2969 0.48438 0.3125 0 0.60938-0.046875 0.89062-0.14062s0.53906-0.22656 0.78125-0.40625v1.625c-0.3125 0.11719-0.63281 0.19531-0.95312 0.25-0.32422 0.0625-0.64844 0.09375-0.96875 0.09375-1.125 0-2.0078-0.28516-2.6406-0.85938-0.63672-0.58203-0.95312-1.3828-0.95312-2.4062 0-1.0312 0.31641-1.832 0.95312-2.4062 0.63281-0.58203 1.5156-0.875 2.6406-0.875 0.33203 0 0.65625 0.03125 0.96875 0.09375 0.32031 0.054687 0.64062 0.13672 0.95312 0.25z" />
    </symbol>
  </defs>
  <g>
    <path
      d="m483.39 321.5c41.043-109.45 129.97-45.602 186.97-212.05 20.52-63.844 15.961 25.082 6.8398 41.043 43.324-34.203 11.402 31.922 6.8398 47.883 20.52 20.52 0 34.203-13.68 61.562 22.801 25.082 4.5586 27.363-22.801 57.004 13.68 22.801 0 18.242-27.363 29.641 22.801 50.164-79.805 25.082-98.047 20.52 18.242 59.285 61.562 102.61 129.97 134.53-9.1211 2.2812-20.52 2.2812-31.922 4.5586-11.402 18.242-9.1211 13.68-27.363-2.2812-11.402 25.082-18.242 4.5586-38.762-13.68-27.363 20.52-43.324-45.602-59.285-75.246-2.2812 6.8398 0 15.961 2.2812 22.801-141.37-47.883-31.922-171.01-127.69-143.65 2.2812-4.5586 4.5586-9.1211 9.1211-13.68 2.2812-41.043 54.723-72.965 104.89 41.043z"
      fill-rule="evenodd" fill="#008966" />
    <path
      d="m570.03 95.766c2.2812-66.125 20.52 18.242 15.961 36.48 34.203-43.324 22.801 27.363 20.52 45.602 22.801 2.2812 9.1211 15.961-4.5586 29.641-20.52 15.961-41.043 25.082-63.844 38.762-27.363 15.961-43.324 34.203-54.723 59.285-25.082-47.883 79.805-70.684 86.645-209.77z"
      fill-rule="evenodd" fill="#008966" />
    <path
      d="m216.61 321.5c-41.043-109.45-129.97-45.602-186.97-212.05-20.52-63.844-15.961 25.082-4.5586 41.043-45.602-34.203-13.68 31.922-9.1211 47.883-20.52 20.52 0 34.203 13.68 61.562-22.801 25.082-4.5586 27.363 22.801 57.004-13.68 22.801 0 18.242 27.363 29.641-22.801 50.164 79.805 25.082 98.047 20.52-18.242 59.285-61.562 102.61-129.97 134.53 9.1211 2.2812 20.52 2.2812 31.922 4.5586 11.402 18.242 9.1211 13.68 27.363-2.2812 11.402 25.082 18.242 4.5586 38.762-13.68 27.363 20.52 43.324-45.602 59.285-75.246 2.2812 6.8398 0 15.961-2.2812 22.801 141.37-47.883 31.922-171.01 127.69-143.65-2.2812-4.5586-4.5586-9.1211-9.1211-13.68-2.2812-41.043-54.723-72.965-104.89 41.043z"
      fill-rule="evenodd" fill="#008966" />
    <path
      d="m129.97 95.766c-2.2812-66.125-20.52 18.242-15.961 36.48-34.203-43.324-22.801 27.363-20.52 45.602-22.801 2.2812-9.1211 15.961 4.5586 29.641 20.52 15.961 41.043 25.082 63.844 38.762 27.363 15.961 43.324 34.203 54.723 59.285 25.082-47.883-79.805-70.684-86.645-209.77z"
      fill-rule="evenodd" fill="#008966" />
  </g>
</svg>
